Love for All and Sharing is the first step to solving all the problems of humanity.

 Websites I want to share. 
               
   http://www.scenetime.com
 
 
 Credit to EVERYONE for sharing and seeding back
 especially to scenetime.com where i get all my 
 downloads.


 support www.scenetime.com to grow faster.

 
 The world is ONE big family.	                                
                                                            
                                                   

.                 ..................................NFO:....................................*******************************************************************************
                   Clean.Break.2008.DVDRip.AC3.X264-BARC0DE
*******************************************************************************

-------------------------------------------------------------------------------
                              General Information
-------------------------------------------------------------------------------
Type.................: Movie
Name.................: Clean Break
Movie Information....: http://www.imdb.com/title/tt0867464/
Genre................: Drama | Thriller

-------------------------------------------------------------------------------
                                    PLOT
-------------------------------------------------------------------------------
Matt and Julia aren't having the greatest relationship on earth. They've got a 
successful advertising agency but Matt suspects his wife of having an affair 
and is getting so obsessed with this thought that he's actually asked his co-worker 
Trevor Jones to have her followed. Trevor, who wants to become partner in the company, 
does as requested and when he brings pictures to Matt that show Julia talking with 
another man, Matt goes berserk and wants Julia dead. When word of Julia's death 
little later spreads, Matt gets remorse and kills himself. But Julia isn't dead 
and it seems that Matt's suicide might actually have been a murder... 

-------------------------------------------------------------------------------
                                    CAST
-------------------------------------------------------------------------------
Tara Reid	... 	Julia McKay
Colm Meaney	... 	Trevor Jones
Angus Macfadyen	... 	Matt McKay
Francesc Garrido	... 	lvaro
Robert Galzarano	... 	Bobby McKay
Lorena Bernal	... 	Eva
Mingo Rfols	... 	Inspector Jimnez
George Wendt	... 	Chuck
Marta Bayarri	... 	Ana
Roger Delmont	... 	Daniel
Ludovic Tattevin	... 	Antonio
Sue Flack	... 	Rose McKay
Anna Diogene	... 	Notario Myalar
Joan Pic	... 	Luis

-------------------------------------------------------------------------------
                                    MEDiA iNFO
-------------------------------------------------------------------------------

General
Complete name                    : Clean.Break.2008.DVDRip.AC3.X264-BARC0DE.mkv
Format                           : Matroska
File size                        : 1.44 GiB
Duration                         : 1h 29mn
Overall bit rate                 : 2 324 Kbps

Video
ID                               : 1
Format                           : AVC
Format/Info                      : Advanced Video Codec
Format profile                   : Baseline@L3.0
Format settings, CABAC           : No
Format settings, ReFrames        : 2 frames
Muxing mode                      : Container profile=Unknown@3.0
Codec ID                         : V_MPEG4/ISO/AVC
Duration                         : 1h 29mn
Bit rate                         : 1 893 Kbps
Nominal bit rate                 : 1 962 Kbps
Width                            : 720 pixels
Height                           : 400 pixels
Display aspect ratio             : 16:9
Frame rate                       : 25.000 fps
Resolution                       : 8 bits
Colorimetry                      : 4:2:0
Scan type                        : Progressive
Bits/(Pixel*Frame)               : 0.263
Stream size                      : 1.18 GiB (81%)
Writing library                  : x264 core 79


Audio
ID                               : 2
Format                           : AC-3
Format/Info                      : Audio Coding 3
Format_Settings_ModeExtension    : CM (complete main)
Codec ID                         : A_AC3
Duration                         : 1h 29mn
Bit rate mode                    : Constant
Bit rate                         : 384 Kbps
Channel(s)                       : 6 channels
Channel positions                : Front: L C R, Side: L R, LFE
Sampling rate                    : 48.0 KHz
Stream size                      : 244 MiB (17%)
Language                         : English

Menu
00:00:00.000                     : Chapter 1
00:08:17.960                     : Chapter 2
00:14:04.880                     : Chapter 3
00:20:57.880                     : Chapter 4
00:28:57.120                     : Chapter 5
00:37:10.400                     : Chapter 6
00:45:54.400                     : Chapter 7
00:52:03.360                     : Chapter 8
00:59:23.120                     : Chapter 9
01:08:38.120                     : Chapter 10
01:12:51.520                     : Chapter 11
01:22:24.560                     : Chapter 12
01:28:59.640                     : Chapter 13